<svg width="46" height="46" viewBox="0 0 46 46" fill="none" xmlns="http://www.w3.org/2000/svg">
<path d="M11.7458 7.18616C10.938 7.30547 9.96764 7.68497 9.27908 8.15647C8.82914 8.45404 8.24839 9.01322 7.91345 9.45166C7.5397 9.94472 7.08402 10.8935 6.90433 11.5447L6.75195 12.0866V34.6942L6.90433 35.2361C7.08258 35.8873 7.53827 36.836 7.91345 37.3291C8.61783 38.2505 9.70314 39.0268 10.7928 39.379C11.6926 39.6665 11.2427 39.655 22.9914 39.655C34.7458 39.655 34.2959 39.6665 35.19 39.3732C36.2854 39.021 37.3693 38.2505 38.0693 37.3291C38.4431 36.8303 38.9045 35.8815 39.0828 35.2361L39.2294 34.6942V12.0866L39.077 11.5447C38.8988 10.8949 38.4431 9.94472 38.0693 9.45166C37.733 9.01179 37.1536 8.45404 36.7037 8.15647C36.2207 7.82585 35.4344 7.46791 34.8278 7.29972L34.2959 7.1531L23.1811 7.14735C17.0703 7.1416 11.9198 7.15885 11.7473 7.18472L11.7458 7.18616ZM26.8942 13.1662C28.6077 13.4479 29.7778 14.0114 30.5426 14.9228C30.8675 15.308 31.247 16.0728 31.4051 16.642C31.5028 17.0158 31.5186 17.2271 31.5244 18.16C31.5301 19.1418 31.5186 19.287 31.4051 19.6723C31.0745 20.8223 30.3528 21.7049 29.187 22.3892L28.786 22.622L29.0735 22.714C29.5119 22.8607 30.245 23.2402 30.6188 23.5219C31.5517 24.2263 32.2015 25.3217 32.4616 26.6283C32.5867 27.2795 32.5867 28.6725 32.4559 29.269C31.9413 31.6165 30.1243 33.248 27.3916 33.7957C26.3451 34.007 26.0748 34.0185 20.4571 34.0185H14.9658V13.031L20.6483 13.0526C25.7341 13.0684 26.3839 13.0799 26.8942 13.1662ZM19.6291 19.0858V21.5583L22.2482 21.5367C24.7049 21.5094 24.8889 21.5037 25.2842 21.3958C26.5205 21.0595 27.0566 20.3493 27.0566 19.0484C27.0566 18.0508 26.7045 17.4053 25.9397 17.0258C25.2626 16.6895 24.5295 16.619 21.6516 16.6133H19.6291V19.0858ZM19.6291 27.5656V30.4449L22.4911 30.4233C25.7068 30.4018 25.8146 30.3903 26.6067 30.0065C27.5181 29.5623 27.9235 28.8349 27.9235 27.6475C27.9235 26.1195 27.3168 25.2728 25.9181 24.8502C25.5228 24.7251 25.4466 24.7251 22.5731 24.7035L19.6291 24.6877V27.5656Z" fill="url(#paint0_linear_63_614)"/>
<defs>
<linearGradient id="paint0_linear_63_614" x1="22.9907" y1="7.14624" x2="22.9907" y2="39.655" gradientUnits="userSpaceOnUse">
<stop offset="0.3125" stop-color="#8407FB"/>
<stop offset="0.729167" stop-color="#2B005A"/>
</linearGradient>
</defs>
</svg>
