<svg width="45" height="45" viewBox="0 0 45 45" fill="none" xmlns="http://www.w3.org/2000/svg">
<path d="M6.66992 4.94849L9.55133 37.2655L22.4804 40.8543L35.446 37.2599L38.3302 4.94849H6.66992ZM32.3438 12.3397L31.3693 23.2621L30.6943 30.7982L30.6352 31.4676L22.5057 33.7218L14.3874 31.4676L13.832 25.2435H17.8102L18.0929 28.4047L22.5113 29.5958L22.524 29.593L26.9326 28.4033L27.3952 23.2635H18.1435L18.0648 22.3733L17.8834 20.3638L17.7891 19.3007H27.7468L28.1096 15.2422H12.9418L12.863 14.3507L12.6816 12.3411L12.5874 11.278H32.4409L32.3452 12.3411L32.3438 12.3397Z" fill="url(#paint0_linear_63_588)"/>
<defs>
<linearGradient id="paint0_linear_63_588" x1="22.5001" y1="4.94849" x2="22.5001" y2="40.8543" gradientUnits="userSpaceOnUse">
<stop offset="0.3125" stop-color="#8407FB"/>
<stop offset="0.729167" stop-color="#2B005A"/>
</linearGradient>
</defs>
</svg>
