<svg width="46" height="46" viewBox="0 0 46 46" fill="none" xmlns="http://www.w3.org/2000/svg">
<path d="M5.58337 17.3636V19.2496L5.44249 19.2237C4.57712 19.0728 3.65568 19.1332 2.8708 19.3948C1.13287 19.9756 0.158241 21.5151 0.245928 23.5449C0.287616 24.4548 0.470178 25.0816 0.864053 25.6724C1.42612 26.5191 2.33605 27.0222 3.66718 27.2321C4.64612 27.3873 6.63705 27.2781 7.98399 26.9934L8.08605 26.9704V15.4834H5.58193V17.3651L5.58337 17.3636ZM5.40512 21.2104L5.58337 21.2564V25.2584L5.32893 25.2814C4.33849 25.3762 3.68587 25.2095 3.26899 24.7495C2.94268 24.393 2.77593 23.8841 2.77593 23.2588C2.77593 22.1505 3.30349 21.4001 4.23212 21.1874C4.50093 21.127 5.13055 21.1385 5.40512 21.2104ZM9.56668 16.7527V18.0234H12.0708L12.0636 16.7599L12.0521 15.5006L10.8116 15.4891L9.56668 15.4819V16.7527ZM16.3574 19.1461C15.4734 19.2108 14.5476 19.4379 13.7699 19.7801L13.55 19.8792V20.8352C13.55 21.5827 13.5615 21.7839 13.5989 21.7681C14.9386 21.1946 15.6013 21.0364 16.5357 21.0623C16.9296 21.0738 17.0144 21.0882 17.1049 21.1572C17.2875 21.2894 17.3436 21.4533 17.3436 21.8443C17.3436 22.0384 17.3364 22.1965 17.3249 22.1965C17.2156 22.1965 16.4753 22.2914 16.1217 22.3517C14.3047 22.6551 13.3631 23.2775 13.113 24.3283C13.0411 24.6431 13.0411 25.4021 13.113 25.7169C13.2352 26.2258 13.4925 26.6053 13.9022 26.8669C14.7517 27.4175 16.034 27.4736 19.3834 27.1056L19.6191 27.0797V24.2306C19.6191 22.6637 19.6004 21.2262 19.5817 21.0364C19.4682 19.9698 18.9593 19.4351 17.8481 19.2237C17.5376 19.1662 16.7139 19.1231 16.3574 19.1461ZM17.4571 24.6589V25.4898L17.1265 25.5387C16.6104 25.6149 15.9204 25.6062 15.7034 25.5229C15.3081 25.3705 15.1528 24.9277 15.3541 24.5396C15.4633 24.3269 15.7336 24.1529 16.1361 24.0351C16.333 23.9776 17.1797 23.8381 17.3723 23.8309L17.4557 23.8266V24.6575L17.4571 24.6589ZM24.1717 19.1504C23.2718 19.1878 21.9292 19.4049 20.9776 19.6593L20.8338 19.6967V27.2047H23.3379L23.3451 24.2536L23.3566 21.3067L23.6226 21.2348C23.8123 21.1859 24.0322 21.1629 24.4002 21.1586C24.8631 21.1543 24.9321 21.1629 25.1132 21.2463C25.3591 21.3556 25.5157 21.5309 25.602 21.7882C25.6624 21.9708 25.6696 22.2238 25.6811 24.5957L25.6926 27.2062H28.1579L28.1421 24.2392C28.1306 21.5726 28.1234 21.242 28.0659 21.0264C27.9523 20.598 27.7812 20.3091 27.4707 19.9942C26.9849 19.5055 26.3322 19.2511 25.3346 19.1677C24.8717 19.1303 24.7395 19.126 24.1702 19.1519L24.1717 19.1504ZM40.8424 19.1806C39.3819 19.4466 38.3354 20.322 37.8955 21.6574C37.687 22.2827 37.6296 22.7269 37.6526 23.5204C37.6684 23.9948 37.6942 24.2823 37.7474 24.5152C38.0579 25.8391 38.8816 26.7677 40.1107 27.1861C41.1615 27.5469 42.6105 27.4865 43.5664 27.0423C44.7883 26.4817 45.5358 25.3806 45.7169 23.8856C45.9297 22.1562 45.3561 20.5922 44.2334 19.8189C43.7447 19.4811 43.3537 19.3215 42.7126 19.1964C42.2727 19.1087 41.2707 19.1016 40.8424 19.1806ZM42.2382 21.2104C42.6407 21.3584 42.944 21.7494 43.1107 22.3287C43.1869 22.5904 43.1984 22.7197 43.1984 23.2588C43.1984 23.7936 43.1869 23.9258 43.1107 24.1802C42.944 24.7639 42.6896 25.106 42.2756 25.3001C42.0901 25.3877 42.0096 25.4021 41.6991 25.4021C41.3915 25.4021 41.3081 25.3863 41.1299 25.3029C40.7202 25.1132 40.4744 24.8056 40.3033 24.2895C40.1739 23.8956 40.1394 22.9814 40.2357 22.5142C40.3493 21.9722 40.5764 21.5769 40.9229 21.3412C41.2909 21.0867 41.7839 21.0379 42.2396 21.2089L42.2382 21.2104ZM33.7138 19.1849C32.7162 19.2913 31.9687 19.4739 31.3161 19.7729C29.7607 20.4859 28.9528 21.7839 28.9528 23.5621C28.9528 25.3072 29.7492 26.5708 31.1536 27.0596C31.95 27.337 33.0238 27.3485 33.7828 27.0854C33.9682 27.0207 34.1249 26.9762 34.1321 26.9834C34.1623 27.0136 34.0746 27.7309 34.0142 27.9249C33.8202 28.5732 33.4335 28.9412 32.7478 29.1281C32.3956 29.2273 31.1967 29.2273 30.7367 29.1281C30.3342 29.0447 29.7765 28.8622 29.42 28.6997L29.1426 28.5747V30.8732L29.5896 31.0098C30.3486 31.2412 30.9897 31.3404 31.8091 31.3404C33.6793 31.3447 35.0104 30.7683 35.7924 29.6183C36.1417 29.1022 36.366 28.4467 36.4724 27.6116C36.5256 27.1861 36.5371 22.8017 36.4882 21.7854L36.4623 21.242L36.7541 21.2535L37.0502 21.2693L37.4642 20.4039C37.6914 19.9296 37.8696 19.5314 37.8624 19.5199C37.8279 19.4897 37.0732 19.3531 36.4896 19.2741C36.0641 19.2166 35.6516 19.195 34.8926 19.1835C34.3305 19.1792 33.8001 19.1792 33.7167 19.1878L33.7138 19.1849ZM34.089 21.7494C34.1005 22.0916 34.1192 22.9857 34.1307 23.7404L34.1537 25.1132L34.0099 25.152C33.4493 25.3029 32.8944 25.3029 32.5077 25.1592C31.8623 24.9119 31.536 24.3585 31.5029 23.4601C31.4771 22.7082 31.6208 22.2267 31.996 21.8328C32.41 21.3958 33.0468 21.1615 33.8705 21.1385L34.0674 21.1342L34.089 21.7494ZM9.56668 22.2051C9.56668 26.5032 9.51349 27.0653 9.0463 27.9752C8.75449 28.5445 8.21543 29.0189 7.40755 29.4242C7.20199 29.5263 7.13874 29.5723 7.18043 29.5953C7.21062 29.614 7.73099 29.8612 8.3333 30.1459L9.43299 30.6662L9.66443 30.5484C11.1364 29.7865 11.8034 28.7199 11.9946 26.808C12.0205 26.5579 12.0478 24.991 12.0593 22.852L12.0823 19.3157H9.56668V22.2066V22.2051Z" fill="url(#paint0_linear_63_616)"/>
<defs>
<linearGradient id="paint0_linear_63_616" x1="23.0006" y1="15.4819" x2="23.0006" y2="31.3405" gradientUnits="userSpaceOnUse">
<stop offset="0.3125" stop-color="#8407FB"/>
<stop offset="0.729167" stop-color="#2B005A"/>
</linearGradient>
</defs>
</svg>
