<svg viewBox="0 0 24 24" xmlns="http://www.w3.org/2000/svg" xmlns:xlink="http://www.w3.org/1999/xlink" fill="#000000"><g id="SVGRepo_bgCarrier" stroke-width="0"></g><g id="SVGRepo_tracerCarrier" stroke-linecap="round" stroke-linejoin="round"></g><g id="SVGRepo_iconCarrier"> <defs> <polygon id="desktop-a" points="0 .046 0 2 18 2 18 0"></polygon> <path id="desktop-c" d="M11,13 L13,13 L18,13 L18,10 L2,10 L2,13 L7,13 L9,13 L11,13 Z M11,15 L9,15 L9,16 L11,16 L11,15 Z M13,15 L13,16 L14,16 C14.5522847,16 15,16.4477153 15,17 C15,17.5522847 14.5522847,18 14,18 L6,18 C5.44771525,18 5,17.5522847 5,17 C5,16.4477153 5.44771525,16 6,16 L7,16 L7,15 L2,15 C0.8954305,15 0,14.1045695 0,13 L0,2 C0,0.8954305 0.8954305,0 2,0 L18,0 C19.1045695,0 20,0.8954305 20,2 L20,13 C20,14.1045695 19.1045695,15 18,15 L13,15 Z M18,8 L18,2 L2,2 L2,8 L18,8 Z"></path> </defs> <g fill="none" fill-rule="evenodd" transform="translate(2 3)"> <g transform="translate(1 11)"> <mask id="desktop-b" fill="#ffffff"> <use xlink:href="#desktop-a"></use> </mask> <use fill="#D8D8D8" xlink:href="#desktop-a"></use> <g fill="#FFA0A0" mask="url(#desktop-b)"> <rect width="24" height="24" transform="translate(-3 -14)"></rect> </g> </g> <mask id="desktop-d" fill="#ffffff"> <use xlink:href="#desktop-c"></use> </mask> <use fill="#000000" fill-rule="nonzero" xlink:href="#desktop-c"></use> <g fill="#7600FF" mask="url(#desktop-d)"> <rect width="24" height="24" transform="translate(-2 -3)"></rect> </g> </g> </g></svg>