<svg width="45" height="45" viewBox="0 0 45 45" fill="none" xmlns="http://www.w3.org/2000/svg">
<path d="M6.56024 4.79663L9.46134 37.3879L22.4804 41.0076L35.536 37.3823L38.4399 4.79663H6.56024ZM12.5874 12.531L12.4918 11.458H22.486V15.4546H16.854L17.2182 19.5482H22.486V23.5448H13.569L12.5874 12.5296V12.531ZM31.666 20.6226L30.7281 31.1455L30.6676 31.8205L22.4804 34.093L14.3045 31.8205L13.7448 25.5444H17.7512L18.0352 28.7324L22.4832 29.9333L26.934 28.7296L27.3967 23.5462H22.4959V19.5496H31.7588L31.6618 20.6226H31.666ZM32.3888 12.531L32.2074 14.5574L32.1273 15.456H22.5001V11.4594H32.4845L32.3888 12.531Z" fill="url(#paint0_linear_63_590)"/>
<defs>
<linearGradient id="paint0_linear_63_590" x1="22.4994" y1="4.79663" x2="22.4994" y2="41.0076" gradientUnits="userSpaceOnUse">
<stop offset="0.3125" stop-color="#8407FB"/>
<stop offset="0.729167" stop-color="#2B005A"/>
</linearGradient>
</defs>
</svg>
