<svg width="46" height="46" viewBox="0 0 46 46" fill="none" xmlns="http://www.w3.org/2000/svg">
<path d="M18.0507 33.3787C18.0507 33.3787 16.6391 34.1995 19.0555 34.4784C21.9837 34.8119 23.4816 34.7644 26.7088 34.1535C26.7088 34.1535 27.5569 34.6854 28.7428 35.1468C21.5079 38.2475 12.3683 34.9671 18.0507 33.3787ZM17.1667 29.3321C17.1667 29.3321 15.5825 30.5051 18.0018 30.7553C21.1298 31.0773 23.6009 31.1046 27.876 30.2809C27.876 30.2809 28.4669 30.8803 29.3969 31.2081C20.6497 33.7654 10.9063 31.4093 17.1667 29.3321ZM24.6201 22.4681C26.4026 24.5208 24.1515 26.368 24.1515 26.368C24.1515 26.368 28.6782 24.0321 26.5995 21.1053C24.6575 18.3769 23.1697 17.0214 31.2297 12.3466C31.2297 12.3466 18.5783 15.5048 24.6201 22.4681ZM34.1881 36.3716C34.1881 36.3716 35.2332 37.2326 33.0367 37.8982C28.8607 39.1632 15.6558 39.5456 11.9873 37.9485C10.6692 37.3749 13.1417 36.5786 13.9193 36.4118C14.7301 36.2364 15.1944 36.2681 15.1944 36.2681C13.7282 35.2345 5.71554 38.2964 11.1248 39.1732C25.8765 41.5653 38.0147 38.098 34.1881 36.3716ZM18.7292 25.1404C18.7292 25.1404 12.0118 26.736 16.3502 27.3153C18.1815 27.5611 21.8328 27.5051 25.2353 27.2204C28.0155 26.9861 30.8071 26.4873 30.8071 26.4873C30.8071 26.4873 29.8267 26.9071 29.118 27.3915C22.2971 29.1855 9.12097 28.3503 12.9145 26.5161C16.123 24.965 18.7307 25.1418 18.7307 25.1418L18.7292 25.1404ZM30.7798 31.8751C37.7143 28.2727 34.5072 24.8097 32.2705 25.2755C31.7213 25.3891 31.477 25.4883 31.477 25.4883C31.477 25.4883 31.6811 25.1691 32.0692 25.0311C36.4953 23.4743 39.9007 29.6211 30.6404 32.0562C30.6404 32.0562 30.7482 31.9599 30.7798 31.8751ZM26.5981 4.79688C26.5981 4.79688 30.4377 8.63787 22.9555 14.5446C16.9553 19.2826 21.587 21.9851 22.9526 25.0714C19.4508 21.9118 16.8806 19.1302 18.6042 16.5413C21.1356 12.7405 28.1477 10.8991 26.5981 4.79688ZM19.4106 41.6386C26.0662 42.0641 36.2868 41.4028 36.5283 38.2533C36.5283 38.2533 36.0626 39.4478 31.0285 40.3951C25.3475 41.4646 18.3411 41.3396 14.1867 40.6539C14.1867 40.6539 15.0363 41.3582 19.4106 41.6386Z" fill="url(#paint0_linear_63_618)"/>
<defs>
<linearGradient id="paint0_linear_63_618" x1="22.9003" y1="4.79687" x2="22.9003" y2="41.7546" gradientUnits="userSpaceOnUse">
<stop offset="0.3125" stop-color="#8407FB"/>
<stop offset="0.729167" stop-color="#2B005A"/>
</linearGradient>
</defs>
</svg>
