<svg width="46" height="45" viewBox="0 0 46 45" fill="none" xmlns="http://www.w3.org/2000/svg">
<path d="M6.75339 4.80786L9.71033 37.2543L22.9799 40.8585L36.2854 37.25L39.2452 4.80927H6.75195L6.75339 4.80786ZM19.0124 13.2102L18.4245 19.4554L32.3265 19.4568L32.2273 20.5255L31.2714 31.0021L31.211 31.6743L22.8678 33.9369L14.536 31.6743L13.9668 25.4263H18.0493L18.3396 28.6002L22.8735 29.7955L27.4103 28.5974L27.8818 23.4365L13.9797 23.435L14.0789 22.3663L15.0348 11.8897L15.3353 8.9563H31.5603L31.7486 11.2035L32.328 17.4655H28.244L27.8674 13.3565L23.7145 13.1118H22.9741V13.1061L19.0138 13.2102H19.0124Z" fill="url(#paint0_linear_63_592)"/>
<defs>
<linearGradient id="paint0_linear_63_592" x1="22.9986" y1="4.80786" x2="22.9986" y2="40.8585" gradientUnits="userSpaceOnUse">
<stop offset="0.3125" stop-color="#8407FB"/>
<stop offset="0.729167" stop-color="#2B005A"/>
</linearGradient>
</defs>
</svg>
