<svg width="46" height="46" viewBox="0 0 46 46" fill="none" xmlns="http://www.w3.org/2000/svg">
<g clip-path="url(#clip0_63_612)">
<path fill-rule="evenodd" clip-rule="evenodd" d="M45.4193 1.58276C45.4193 1.58276 36.6663 5.76589 29.5406 6.6902C22.4149 7.61451 8.82626 8.53739 6.12735 7.88548C3.42845 7.23358 1.49285 6.47242 1.49285 6.47242L2.05348 8.37423L0.321289 9.89511L0.628195 10.4378L1.33976 10.4917L3.52763 10.7634L3.83454 11.7409L5.05641 11.8508L5.66735 13.9136C5.66735 13.9136 8.25485 14.1314 9.02535 14.1314C9.79585 14.1314 11.316 14.0236 11.316 14.0236L11.3663 14.8379L11.9269 14.9458V15.8701L10.7036 16.9583L11.0105 17.0122V17.391C11.0105 17.391 8.26132 17.6102 7.14151 17.447C6.0217 17.2839 5.81757 17.2831 5.81757 17.2831L5.71695 17.391L5.66663 17.8797H5.92107L6.0217 20L11.6732 19.7822L11.2154 28.0385L6.42995 27.7668L6.37963 25.8118H7.44698L7.54976 25.0514L8.51648 24.8336L8.67029 24.618L5.05498 23.7483L2.30648 24.5626L2.76432 24.9436H3.22216L3.27248 25.5962L4.2392 25.6501V27.5519L3.17185 27.8236L3.37598 28.2563L3.63041 28.4202V29.8864H4.29166V36.6757L3.22216 36.8396L3.37598 38.7946L4.03579 38.9046L3.93516 43.3587L6.83748 43.4126L6.22654 39.0117L10.6109 38.9039L10.3062 41.2923L9.89863 42.977L14.3261 43.0309L14.3764 38.6868L17.4297 38.4151L17.2859 41.1852L17.1832 42.8131H19.7807L19.6779 38.359L20.0352 38.4151L20.1358 36.2948H19.7283L19.5845 35.4251L19.3301 32.9267L19.4307 30.0496H19.9899V28.3188L19.2783 28.3727L19.3811 26.3221L20.2077 26.2402L20.2458 25.5746L20.7158 25.5056L21.1974 25.1391L18.2972 24.5425L15.4222 25.18L15.7097 25.64L16.0145 25.6142L16.3695 25.6012L16.4414 26.4407L17.2428 26.4026L17.2572 28.2211L13.8072 28.1492L13.9222 26.2064L14.035 24.4397V22.1182L14.1378 19.6744L21.045 19.3208L29.2654 18.8464L29.3423 20.4083L29.0497 24.1558L28.9225 27.6454L25.8951 27.5915L25.8808 25.1477L27.0006 25.1067L27.0509 24.4153L27.5087 24.3463L27.485 24.2097L27.9429 24.1839L28.1973 23.8432L24.7746 23.0418L21.3634 23.7749L21.6056 24.1975L21.9866 24.1688V24.3607H22.4566V25.134L23.4614 25.147L23.4492 27.2925H22.4322L22.4178 27.7812L22.775 27.8222L22.7369 29.6837L23.488 29.7247L23.3996 37.0991L22.4063 37.3003L22.4185 37.654H22.7635V39.5443H23.3342L23.1905 42.1318L22.9986 44.3843L26.6139 44.4792L26.4989 42.5242L26.233 40.8962L26.1805 39.4832L29.2481 39.4293L29.1597 41.6157L29.1453 43.925L30.8775 44.0616L33.2307 43.9667L33.9696 43.7489L33.562 42.5127L33.4614 40.5699L33.2695 39.1849L36.1948 39.0771L36.0676 40.7733L36.0554 43.4356L37.2269 43.5434L38.3856 43.5182L38.9448 43.3414L38.6141 40.815L38.5013 38.9132L38.9972 38.8593L39.0094 37.163L39.1489 37.1343L39.1252 36.7677H38.5516L38.4366 35.5185L38.3863 30.0992L38.8175 30.0862V28.2829L38.9972 28.3116V27.9595L38.359 27.9034L38.3734 25.8406L39.4407 25.7457L39.3782 25.0521L39.8482 25.0111L39.8216 24.8746L40.4455 24.5619L37.2773 23.9244L34.0573 24.577L34.2614 24.9558L34.7573 24.9148L34.7839 25.0787H35.2037L35.2274 25.893L36.271 25.8801L36.3594 27.8768L32.6701 27.848L32.2388 24.848L31.8938 23.2581L31.6157 20.4061L31.781 18.7372L39.1352 18.1794L39.1589 15.694L39.5284 15.5991L39.5047 15.2203L39.2172 15.0564C39.2172 15.0564 35.1958 15.653 33.9236 15.7896L33.2997 15.8564L33.2616 15.3964L31.7407 14.6L31.7601 13.6729L32.2834 13.6585L32.3215 12.3834C32.3215 12.3834 35.438 12.1786 36.5959 11.9076C37.7538 11.6366 39.3954 11.3649 39.3954 11.3649L40.1717 9.26045L41.7119 8.81267L41.8392 8.45904L45.3251 7.49377L45.7204 7.16889L44.3965 4.27592L44.5237 3.6233L45.1979 3.26967L45.6823 1.78904L45.4193 1.58276ZM28.6745 12.6113L28.6551 13.6563L29.4443 13.6894L29.394 14.6884L27.8465 15.6947L27.7509 15.9865L28.3748 15.9915L28.3698 16.2374L23.6419 16.4674L23.6728 15.7687L23.8884 15.4209L23.9028 15.2052L23.9078 14.7237L24.0422 14.4038L24.0925 14.1451V13.9611L24.2966 13.1467L28.6745 12.6113ZM18.7881 13.5075L18.6731 14.2141L19.0426 14.6489L19.0189 15.4094L19.3617 15.9391L19.2733 16.5644L19.5277 16.931L14.7049 17.1207L14.6927 16.9597L15.2519 16.8907L15.2785 16.6859L14.0566 16.0232L13.9847 14.963L14.5698 14.9343L14.6201 13.7915L18.7881 13.5075ZM25.9268 29.8045L28.8521 29.9942L28.7514 33.9344L29.1324 37.1652L26.0288 37.0574L25.9268 29.8045ZM6.33004 29.9684L11.0149 30.2113L10.6073 32.9282V35.2116L10.9379 36.4867L6.35663 36.7045L6.33004 29.9684ZM36.3105 29.9942V36.7325L33.3349 36.9503L33.2321 33.3925L32.9015 30.0776L36.3105 29.9942ZM13.7634 30.138L17.2249 30.1509L17.2608 36.3969L14.03 36.4529L13.8647 34.4282L13.8525 32.4186L13.7634 30.138Z" fill="url(#paint0_linear_63_612)" stroke="url(#paint1_linear_63_612)" stroke-width="0.706"/>
</g>
<defs>
<linearGradient id="paint0_linear_63_612" x1="23.0209" y1="1.58276" x2="23.0209" y2="44.4792" gradientUnits="userSpaceOnUse">
<stop offset="0.3125" stop-color="#8407FB"/>
<stop offset="0.729167" stop-color="#2B005A"/>
</linearGradient>
<linearGradient id="paint1_linear_63_612" x1="23.0209" y1="1.58276" x2="23.0209" y2="44.4792" gradientUnits="userSpaceOnUse">
<stop offset="0.3125" stop-color="#8407FB"/>
<stop offset="0.729167" stop-color="#2B005A"/>
</linearGradient>
<clipPath id="clip0_63_612">
<rect width="46" height="46" fill="white"/>
</clipPath>
</defs>
</svg>
