<svg width="46" height="46" viewBox="0 0 46 46" fill="none" xmlns="http://www.w3.org/2000/svg">
<path d="M22.9971 41.5367C22.5127 41.5367 22.0297 41.4102 21.6042 41.1643L17.1681 38.5395C16.5068 38.17 16.8302 38.0378 17.0487 37.9616C17.9314 37.6554 18.1111 37.585 19.0526 37.0488C19.1518 36.9942 19.2812 37.0143 19.3847 37.0747L22.7916 39.0972C22.9166 39.1662 23.0891 39.1662 23.2041 39.0972L36.4881 31.431C36.6117 31.3606 36.6907 31.2169 36.6907 31.0717V15.7407C36.6907 15.5912 36.6117 15.4503 36.4852 15.3742L23.207 7.71372C23.0834 7.64185 22.9209 7.64185 22.7973 7.71372L9.52199 15.377C9.39261 15.4503 9.31211 15.5955 9.31211 15.7407V31.0731C9.31211 31.2197 9.39261 31.3577 9.52055 31.4282L13.1603 33.5298C15.1354 34.5174 16.3444 33.3544 16.3444 32.1857V17.0488C16.3444 16.8347 16.5169 16.6665 16.7311 16.6665H18.4158C18.6257 16.6665 18.7996 16.8347 18.7996 17.0488V32.1857C18.7996 34.8207 17.365 36.3329 14.8666 36.3329C14.099 36.3329 13.4938 36.3329 11.8062 35.5006L8.32311 33.4953C7.46349 32.9979 6.93018 32.0679 6.93018 31.0717V15.7407C6.93018 14.7445 7.46349 13.8159 8.32311 13.32L21.6085 5.64372C22.4494 5.16791 23.5664 5.16791 24.4001 5.64372L37.6841 13.32C38.5451 13.8173 39.0799 14.746 39.0799 15.7407V31.0717C39.0799 32.0679 38.5451 32.9936 37.6841 33.4953L24.4001 41.1643C23.9746 41.4102 23.4931 41.5367 23.0014 41.5367H22.9971ZM27.1012 30.9739C21.2865 30.9739 20.0689 28.3045 20.0689 26.0663C20.0689 25.8535 20.2386 25.6839 20.4513 25.6839H22.1691C22.3603 25.6839 22.5213 25.8219 22.5501 26.0088C22.8088 27.7568 23.5807 28.6409 27.0983 28.6409C29.8957 28.6409 31.0874 28.0069 31.0874 26.5234C31.0874 25.6667 30.751 25.0327 26.4011 24.6058C22.7671 24.2464 20.5174 23.4429 20.5174 20.5362C20.5174 17.8553 22.7772 16.2568 26.565 16.2568C30.8214 16.2568 32.9259 17.7331 33.1933 20.9042C33.2034 21.012 33.1646 21.117 33.0912 21.1989C33.0179 21.2765 32.9173 21.3225 32.8095 21.3225H31.0845C30.9062 21.3225 30.7496 21.196 30.7122 21.0221C30.2982 19.1821 29.2919 18.5942 26.5636 18.5942C23.5074 18.5942 23.1524 19.6579 23.1524 20.4557C23.1524 21.4232 23.5721 21.7049 27.6963 22.2497C31.7788 22.7888 33.7194 23.5535 33.7194 26.4213C33.7194 29.3165 31.3073 30.9739 27.0983 30.9739H27.1012Z" fill="url(#paint0_linear_63_620)"/>
<defs>
<linearGradient id="paint0_linear_63_620" x1="23.005" y1="5.28687" x2="23.005" y2="41.5367" gradientUnits="userSpaceOnUse">
<stop offset="0.3125" stop-color="#8407FB"/>
<stop offset="0.729167" stop-color="#2B005A"/>
</linearGradient>
</defs>
</svg>
