<svg width="47" height="46" viewBox="0 0 47 46" fill="none" xmlns="http://www.w3.org/2000/svg">
<path d="M36.8155 20.1251C37.1564 20.4948 37.2373 21.1296 37.059 22.0289C36.8728 22.9655 36.5142 23.6337 35.9829 24.0342C35.4511 24.4347 34.6425 24.635 33.5565 24.635H31.918L32.9239 19.5705H34.7693C35.7928 19.5705 36.4746 19.7555 36.8155 20.1251ZM13.7469 19.5705H11.9016L10.8956 24.635H12.534C13.6197 24.635 14.4286 24.4347 14.9604 24.0342C15.4918 23.6337 15.8503 22.9654 16.0365 22.0289C16.2148 21.1295 16.1339 20.4948 15.793 20.1251C15.4522 19.7555 14.7704 19.5705 13.7469 19.5705ZM46.9541 23.0001C46.9541 29.6691 36.4532 35.0753 23.5 35.0753C10.5468 35.0753 0.0458984 29.6691 0.0458984 23.0001C0.0458984 16.3312 10.5468 10.9248 23.5 10.9248C36.4532 10.9248 46.9541 16.3312 46.9541 23.0001ZM18.2255 23.8344C18.5046 23.3449 18.7032 22.8047 18.8207 22.2139C19.1054 20.7793 18.8905 19.662 18.1759 18.8615C17.4616 18.061 16.3248 17.6609 14.7669 17.6609H9.58745L7.18448 29.7618H9.87799L10.5167 26.5449H12.8239C13.8417 26.5449 14.6791 26.4404 15.3366 26.2308C15.994 26.0215 16.5914 25.6708 17.1292 25.1779C17.5804 24.7718 17.9456 24.3242 18.2255 23.8344ZM27.7056 26.5449L28.8238 20.9134C29.0513 19.7681 28.8806 18.9394 28.3123 18.4279C27.7435 17.9169 26.7105 17.6609 25.2125 17.6609H22.8319L23.4709 14.4436H20.7987L18.3953 26.5449H21.0675L22.4441 19.6121H24.5799C25.2636 19.6121 25.7106 19.7228 25.9205 19.9443C26.1304 20.166 26.1751 20.5814 26.0541 21.1904L24.991 26.5449H27.7056V26.5449ZM39.1983 18.8616C38.4841 18.0611 37.3473 17.661 35.7894 17.661H30.6099L28.2068 29.7619H30.9004L31.539 26.545H33.8463C34.864 26.545 35.7015 26.4405 36.3589 26.2309C37.0163 26.0216 37.6137 25.6709 38.1515 25.178C38.6032 24.7718 38.9681 24.3243 39.2478 23.8345C39.5273 23.345 39.7254 22.8048 39.843 22.2139C40.1278 20.7793 39.9129 19.662 39.1983 18.8616Z" fill="url(#paint0_linear_63_605)"/>
<defs>
<linearGradient id="paint0_linear_63_605" x1="23.5" y1="10.9248" x2="23.5" y2="35.0753" gradientUnits="userSpaceOnUse">
<stop offset="0.3125" stop-color="#8407FB"/>
<stop offset="0.729167" stop-color="#2B005A"/>
</linearGradient>
</defs>
</svg>
