<svg width="46" height="46" viewBox="0 0 46 46" fill="none" xmlns="http://www.w3.org/2000/svg">
<path d="M19.0827 22.8276H26.8696C29.0374 22.8276 30.7681 21.0437 30.7681 18.8659V11.4426C30.7681 9.32949 28.9856 7.74249 26.8696 7.39031C25.5299 7.16749 24.1413 7.06543 22.8087 7.07262C21.4761 7.07981 20.2025 7.19193 19.0827 7.39031C15.7836 7.97249 15.1842 9.19293 15.1842 11.4426V14.4139H22.9798V15.4044H12.2575C9.99196 15.4044 8.00821 16.7657 7.38721 19.3575C6.67133 22.3274 6.63971 24.1803 7.38721 27.281C7.94065 29.5896 9.26458 31.2341 11.5301 31.2341H14.211V27.672C14.211 25.0989 16.4377 22.8291 19.0813 22.8291L19.0827 22.8276ZM18.5911 12.4331C17.7832 12.4331 17.1277 11.7704 17.1277 10.9524C17.1277 10.1302 17.7818 9.46174 18.5911 9.46174C19.3961 9.46174 20.0545 10.1302 20.0545 10.9524C20.0545 11.7718 19.3975 12.4331 18.5911 12.4331ZM38.5623 19.3561C38.0031 17.1006 36.9336 15.4029 34.6638 15.4029H31.7385V18.8644C31.7385 21.5482 29.4629 23.808 26.8682 23.808H19.0813C16.948 23.808 15.1828 25.6336 15.1828 27.7697V35.193C15.1828 37.3061 17.0199 38.5481 19.0813 39.1547C21.5495 39.8807 23.9156 40.0115 26.8682 39.1547C28.8304 38.5869 30.7667 37.4427 30.7667 35.193V32.2217H22.9798V31.2312H34.6652C36.9307 31.2312 37.7745 29.6514 38.5637 27.2781C39.3773 24.8358 39.3428 22.4884 38.5637 19.3546L38.5623 19.3561ZM27.3598 34.204C28.1677 34.204 28.8232 34.8667 28.8232 35.6846C28.8232 36.5069 28.1677 37.1753 27.3598 37.1753C26.5548 37.1753 25.8965 36.5069 25.8965 35.6846C25.8965 34.8652 26.5534 34.204 27.3598 34.204Z" fill="url(#paint0_linear_63_608)"/>
<defs>
<linearGradient id="paint0_linear_63_608" x1="22.9997" y1="7.07227" x2="22.9997" y2="39.7493" gradientUnits="userSpaceOnUse">
<stop offset="0.3125" stop-color="#8407FB"/>
<stop offset="0.729167" stop-color="#2B005A"/>
</linearGradient>
</defs>
</svg>
