<svg width="46" height="46" viewBox="0 0 46 46" fill="none" xmlns="http://www.w3.org/2000/svg">
<g clip-path="url(#clip0_63_594)">
<path d="M22.9999 19.3775C23.7072 19.3776 24.3986 19.5868 24.9871 19.979C25.5757 20.3712 26.0351 20.9287 26.3074 21.5814C26.5798 22.2341 26.653 22.9528 26.5178 23.647C26.3825 24.3411 26.045 24.9798 25.5475 25.4826C25.0501 25.9853 24.4151 26.3297 23.7224 26.4723C23.0296 26.6149 22.3102 26.5493 21.6547 26.2839C20.9991 26.0185 20.4367 25.5651 20.0383 24.9807C19.6399 24.3964 19.4233 23.7072 19.4158 23C19.4132 22.5268 19.5039 22.0578 19.6827 21.6196C19.8614 21.1815 20.1248 20.7828 20.4576 20.4465C20.7904 20.1101 21.1862 19.8425 21.6224 19.6591C22.0587 19.4757 22.5267 19.38 22.9999 19.3775ZM14.1258 38.3334C15.3333 39.0617 17.9591 37.95 21.0258 35.075C20.0008 33.9103 19.0348 32.6949 18.1316 31.4334C16.5856 31.2602 15.0501 31.0043 13.5316 30.6667C12.5541 34.7684 12.9183 37.5859 14.1258 38.3334ZM15.4866 27.3317L14.9308 26.3542C14.7141 26.8925 14.5285 27.4429 14.3749 28.0025C14.8924 28.1175 15.4674 28.2134 16.0616 28.3092L15.4866 27.3317ZM28.0216 25.875L29.5741 23L28.0216 20.125C27.4466 19.1092 26.8333 18.2084 26.2774 17.3075C25.2424 17.25 24.1499 17.25 22.9999 17.25C21.8499 17.25 20.7574 17.25 19.7224 17.25C19.1666 18.1509 18.5533 19.0517 17.9783 20.0675L16.4258 23L17.9783 25.875C18.5533 26.8909 19.1666 27.7917 19.7224 28.6925C20.7574 28.6925 21.8499 28.6925 22.9999 28.6925C24.1499 28.6925 25.2424 28.6925 26.2774 28.6925C26.8333 27.7917 27.4466 26.8909 28.0216 25.875ZM22.9999 12.995C22.6358 13.4167 22.2524 13.8575 21.8691 14.375H24.1308C23.7474 13.8575 23.3641 13.4167 22.9999 12.995ZM22.9999 33.005C23.3641 32.5834 23.7474 32.1425 24.1308 31.625H21.8691C22.2524 32.1425 22.6358 32.5834 22.9999 33.005ZM31.8549 7.6667C30.6666 6.93836 28.0216 8.05003 24.9741 10.925C25.9991 12.0898 26.965 13.3052 27.8683 14.5667C29.4128 14.7145 30.9483 14.9448 32.4683 15.2567C33.4458 11.155 33.0816 8.33753 31.8549 7.59003M30.5133 18.5917L31.0691 19.5692C31.2858 19.0308 31.4713 18.4805 31.6249 17.9209C31.1074 17.8059 30.5324 17.71 29.9383 17.6142L30.5133 18.5917ZM33.2924 5.17503C36.1099 6.78503 36.4166 11.0209 35.2091 15.9659C40.0774 17.4034 43.5849 19.7992 43.5849 23.0192C43.5849 26.2392 40.0774 28.635 35.2091 30.0725C36.3974 35.0175 36.0908 39.2534 33.2924 40.8634C30.4941 42.4734 26.6799 40.6334 22.9999 37.1259C19.3199 40.6334 15.5058 42.4734 12.6883 40.8634C9.87075 39.2534 9.58325 35.1134 10.7716 30.0725C5.90325 28.635 2.39575 26.2392 2.39575 23.0192C2.39575 19.7992 5.90325 17.3842 10.7716 15.9467C9.58325 11.0017 9.88992 6.76586 12.6883 5.15586C15.4866 3.54586 19.3199 5.38586 22.9999 8.89336C26.6799 5.38586 30.4941 3.54586 33.2924 5.15586M32.7366 23C33.4022 24.411 33.9909 25.857 34.4999 27.3317C38.5249 26.1242 40.7866 24.3992 40.7866 23C40.7866 21.6009 38.4674 19.8759 34.4999 18.6684C33.9909 20.1431 33.4022 21.5891 32.7366 23ZM13.2633 23C12.5976 21.5891 12.0089 20.1431 11.4999 18.6684C7.47492 19.8759 5.21325 21.6009 5.21325 23C5.21325 24.3992 7.53242 26.1242 11.4999 27.3317C12.0089 25.857 12.5976 24.411 13.2633 23ZM30.5133 27.3317L29.9383 28.3092C30.5324 28.3092 31.1074 28.1175 31.6249 28.0025C31.4713 27.4429 31.2858 26.8925 31.0691 26.3542L30.5133 27.3317ZM24.9166 35.075C27.9641 37.95 30.6666 39.0617 31.7974 38.3334C32.9283 37.605 33.3883 34.845 32.4108 30.6667C30.8908 30.9786 29.3553 31.2089 27.8108 31.3567C26.9096 32.6443 25.9436 33.8854 24.9166 35.075ZM15.4866 18.6684L16.0616 17.6909C15.4674 17.6909 14.8924 17.8825 14.3749 17.9975C14.5285 18.5572 14.7141 19.1075 14.9308 19.6459L15.4866 18.6684ZM21.0833 10.925C17.9783 8.05003 15.3333 6.93836 14.1258 7.6667C12.9183 8.39503 12.5541 11.155 13.5316 15.3334C15.0515 15.0215 16.587 14.7912 18.1316 14.6434C19.0514 13.3544 20.0366 12.1133 21.0833 10.925Z" fill="url(#paint0_linear_63_594)"/>
</g>
<defs>
<linearGradient id="paint0_linear_63_594" x1="22.9903" y1="4.56738" x2="22.9903" y2="41.4518" gradientUnits="userSpaceOnUse">
<stop offset="0.3125" stop-color="#8407FB"/>
<stop offset="0.729167" stop-color="#2B005A"/>
</linearGradient>
<clipPath id="clip0_63_594">
<rect width="46" height="46" fill="white"/>
</clipPath>
</defs>
</svg>
