<svg width="46" height="46" viewBox="0 0 46 46" fill="none" xmlns="http://www.w3.org/2000/svg">
<g clip-path="url(#clip0_63_610)">
<path d="M31.0768 12.9604L30.9331 13.7099C30.7107 15.1301 30.7912 15.5364 31.4007 16.0635L31.9892 16.5504L31.3797 19.2682C31.0155 20.8897 30.5689 22.2486 30.2852 22.6952C30.0418 23.0804 29.7582 23.6478 29.6968 23.9525C29.5953 24.3167 29.2502 24.6828 28.7232 25.0067C28.2574 25.2712 27.3432 25.9804 26.6953 26.5496C26.1778 27.0154 25.8213 27.3009 25.6278 27.4236L24.9953 27.9239C24.7921 28.2497 24.6771 28.5123 24.633 28.7116C24.5889 28.9167 24.6138 29.0528 24.679 29.1524C24.7423 29.2483 24.8515 29.3154 25.001 29.3575C25.178 29.399 25.3601 29.4139 25.5415 29.4016C25.9518 29.3736 26.3579 29.3016 26.7528 29.1869C26.887 29.1505 26.9924 29.116 27.0844 29.0854C27.2262 28.9109 27.554 28.5813 28.1347 28.0082C29.6757 26.4883 30.2642 25.6564 29.6566 25.8807C29.4323 25.9612 29.5339 25.758 29.9192 25.3517C30.7318 24.5601 31.1976 23.3641 32.1712 19.6132C32.9417 16.6519 32.9417 16.6098 33.5091 16.6098C33.7755 16.6098 34.5287 16.6558 34.5287 16.6558V12.9604H32.7999H31.0768ZM38.4349 19.0267C38.3122 19.0267 38.1091 19.2107 37.9883 19.4139C37.766 19.778 38.0286 20.0004 41.3751 22.0895C43.3627 23.3488 44.965 24.4221 44.9247 24.5045C44.8845 24.5639 43.2611 25.62 41.3157 26.8371C37.7852 29.0259 37.766 29.047 38.0899 29.4936C38.4962 30.0207 38.0899 30.2028 42.6727 27.3431L46 25.2137V23.6114L42.2874 21.319C40.2807 20.0617 38.5365 19.0478 38.4349 19.0267ZM7.60533 19.2509C7.50375 19.2509 5.75958 20.2859 3.75283 21.5222L0 23.8145V25.4169L3.73175 27.7494C5.80175 29.0259 7.54592 30.082 7.62642 30.082C7.70692 30.082 7.86983 29.898 8.03275 29.6757C8.27617 29.2904 8.07108 29.1275 4.64408 26.9579C1.38 24.9089 1.035 24.6253 1.36083 24.4029C1.564 24.2611 3.105 23.3066 4.76867 22.2735C8.56175 19.9409 8.35858 20.1019 8.05383 19.6151C7.93308 19.4139 7.728 19.2318 7.60725 19.2509H7.60533ZM24.2497 19.295C23.69 19.2912 22.4863 20.1441 18.883 23.0862C18.7278 23.4561 18.7143 23.711 18.7852 23.8759C18.8312 23.9889 18.9156 24.0675 19.0325 24.125C19.1475 24.1825 19.297 24.217 19.4618 24.2304C19.7896 24.2592 20.1767 24.2074 20.4892 24.1461L20.7 24.0982C20.7722 24.0014 20.8669 23.9238 20.976 23.872C21.1983 23.7494 22.1318 22.8984 23.0652 21.986C24.7078 20.3224 25.093 19.571 24.4241 19.3276C24.3692 19.3058 24.3087 19.2947 24.2497 19.295ZM28.4587 20.4508C27.9661 20.4642 27.0787 21.0354 25.5587 22.2486C24.7959 22.8677 24.3129 23.2012 24.0542 23.2702L23.0498 24.0637C22.6722 24.7537 22.6167 25.1811 22.7163 25.4169C22.7413 25.475 22.7775 25.5277 22.8229 25.5717C22.8683 25.6158 22.922 25.6505 22.9808 25.6737C23.1273 25.7315 23.2834 25.7608 23.4408 25.7599C23.817 25.7559 24.191 25.7011 24.5525 25.597C24.7409 25.5465 24.927 25.4876 25.1102 25.4207L25.1658 25.3977L25.2674 25.344C25.4591 25.0968 25.8999 24.631 26.4519 24.0944C28.1961 22.4115 29.0873 21.2155 28.9053 20.7689C28.8228 20.5524 28.681 20.4431 28.4587 20.4508ZM23.8127 22.5208C23.6708 22.5361 23.3527 22.7814 22.7796 23.2836C21.9516 24.0158 21.0488 24.4374 20.7364 24.2496C20.6638 24.266 20.591 24.2814 20.5179 24.2956C20.1997 24.3589 19.803 24.4106 19.4484 24.3819C19.2813 24.3717 19.1176 24.3308 18.9654 24.2611C18.8219 24.1955 18.7073 24.0796 18.6434 23.9353C18.5725 23.7628 18.5725 23.5481 18.653 23.274L17.4072 24.2975L14.5877 26.6301V30.4117L23.8261 23.1341C23.8243 23.0544 23.8346 22.9749 23.8567 22.8984C23.9277 22.6415 23.9238 22.5112 23.8127 22.5227V22.5208ZM27.7878 23.7455C27.6479 23.7455 27.4141 23.9429 27.0403 24.3397C26.5324 24.8821 25.7332 25.4073 25.3096 25.5146L25.2444 25.5491C25.1749 25.5778 25.1046 25.6047 25.0336 25.6296C24.9186 25.6679 24.7691 25.7139 24.5966 25.7599C24.2516 25.8539 23.8222 25.9401 23.4389 25.9305C23.2582 25.9303 23.0792 25.8952 22.9118 25.827C22.7541 25.762 22.6276 25.6383 22.5592 25.482C22.448 25.2156 22.4921 24.8419 22.7355 24.3109L14.5858 30.7299V33.0395H18.1662L25.76 27.0748C25.9574 26.8563 26.2545 26.5573 26.6551 26.1835C27.7284 25.1888 27.9718 24.8457 27.9718 24.3378C27.9718 23.9429 27.9277 23.7436 27.7878 23.7436V23.7455ZM29.5952 27.483L28.9455 28.1309C28.5813 28.4759 27.9316 28.9014 27.4869 29.0834L27.3987 29.1218L27.393 29.1314L27.3738 29.1505C27.3566 29.1639 27.3489 29.1659 27.3355 29.1716C27.158 29.2388 26.9777 29.2983 26.795 29.3499C26.3889 29.4681 25.9712 29.542 25.5492 29.5703C25.3496 29.5831 25.1493 29.5656 24.955 29.5185C24.7864 29.4814 24.6375 29.3831 24.5372 29.2425C24.4452 29.1007 24.4183 28.9109 24.4701 28.6771C24.5112 28.5106 24.5724 28.3497 24.6522 28.1979L18.5246 33.0395H26.6742L27.6479 31.9239C28.9857 30.3638 29.5952 29.2483 29.5952 28.2938V27.483Z" fill="url(#paint0_linear_63_610)"/>
</g>
<defs>
<linearGradient id="paint0_linear_63_610" x1="23" y1="12.9604" x2="23" y2="33.0394" gradientUnits="userSpaceOnUse">
<stop offset="0.3125" stop-color="#8407FB"/>
<stop offset="0.729167" stop-color="#2B005A"/>
</linearGradient>
<clipPath id="clip0_63_610">
<rect width="46" height="46" fill="white"/>
</clipPath>
</defs>
</svg>
