<svg width="45" height="46" viewBox="0 0 45 46" fill="none" xmlns="http://www.w3.org/2000/svg">
<g clip-path="url(#clip0_63_599)">
<path d="M22.5002 7.66675C19.4223 7.66675 16.7761 8.51594 14.699 10.3359C12.6368 12.1427 11.2878 14.7731 10.5394 18.0516C10.3761 18.7672 10.7323 19.5006 11.3886 19.8001C12.0449 20.0997 12.8168 19.8813 13.229 19.2794C14.1789 17.8922 15.1273 17.0588 16.0386 16.631C16.9211 16.2168 17.8724 16.1328 18.9621 16.4312C20.0617 16.7323 20.9129 17.6141 22.2493 19.0998L22.2925 19.1478C23.2998 20.2678 24.5287 21.6342 26.2095 22.6943C27.9535 23.7943 30.1239 24.5334 33.0003 24.5334C36.078 24.5334 38.7243 23.6842 40.8015 21.8643C42.8634 20.0574 44.2125 17.427 44.961 14.1485C45.1242 13.433 44.7681 12.6996 44.1117 12.4C43.4556 12.1004 42.6834 12.3188 42.2712 12.9207C41.3214 14.3079 40.3731 15.1413 39.4617 15.5691C38.5791 15.9834 37.6278 16.0673 36.5382 15.7689C35.4387 15.4679 34.5873 14.5861 33.2511 13.1003L33.2079 13.0523C32.2005 11.9323 30.9717 10.5659 29.2909 9.50586C27.5468 8.40585 25.3765 7.66675 22.5002 7.66675Z" fill="url(#paint0_linear_63_599)"/>
<path d="M12.0002 21.4666C8.92227 21.4666 6.27609 22.3157 4.19898 24.1357C2.13681 25.9425 0.787776 28.5729 0.0394095 31.8515C-0.123917 32.567 0.232249 33.3002 0.888558 33.5998C1.54487 33.8995 2.31683 33.6811 2.72902 33.0791C3.6789 31.6921 4.62732 30.8586 5.5386 30.4308C6.42114 30.0166 7.37241 29.9326 8.46207 30.231C9.56169 30.5321 10.4129 31.4139 11.7493 32.8997L11.7925 32.9476C12.7998 34.0675 14.0287 35.434 15.7095 36.4942C17.4535 37.5942 19.6238 38.3333 22.5002 38.3333C25.5781 38.3333 28.2242 37.4841 30.3015 35.664C32.3634 33.8571 33.7125 31.2269 34.461 27.9483C34.6242 27.2327 34.2681 26.4994 33.6117 26.1998C32.9556 25.9002 32.1834 26.1186 31.7712 26.7206C30.8214 28.1077 29.873 28.9412 28.9617 29.3689C28.0792 29.7831 27.1279 29.8671 26.0383 29.5687C24.9387 29.2677 24.0875 28.3858 22.7511 26.9001L22.7079 26.8521C21.7005 25.7321 20.4716 24.3657 18.7909 23.3056C17.0468 22.2056 14.8765 21.4666 12.0002 21.4666Z" fill="url(#paint1_linear_63_599)"/>
</g>
<defs>
<linearGradient id="paint0_linear_63_599" x1="27.7502" y1="7.66675" x2="27.7502" y2="24.5334" gradientUnits="userSpaceOnUse">
<stop offset="0.3125" stop-color="#8407FB"/>
<stop offset="0.729167" stop-color="#2B005A"/>
</linearGradient>
<linearGradient id="paint1_linear_63_599" x1="17.2502" y1="21.4666" x2="17.2502" y2="38.3333" gradientUnits="userSpaceOnUse">
<stop offset="0.3125" stop-color="#8407FB"/>
<stop offset="0.729167" stop-color="#2B005A"/>
</linearGradient>
<clipPath id="clip0_63_599">
<rect width="45" height="46" fill="white"/>
</clipPath>
</defs>
</svg>
